<svg width="364" height="60" viewBox="0 0 364 60" fill="none" xmlns="http://www.w3.org/2000/svg">
<g filter="url(#filter0_dd_1_2607)">
<rect x="6" y="2" width="352" height="48" rx="24" fill="white"/>
<path d="M31.1186 31V20.8182H34.8473C35.5698 20.8182 36.1681 20.9375 36.642 21.1761C37.116 21.4115 37.4706 21.7313 37.706 22.1357C37.9413 22.5367 38.0589 22.9891 38.0589 23.4929C38.0589 23.9171 37.9811 24.2751 37.8253 24.5668C37.6695 24.8551 37.4607 25.0871 37.1989 25.2628C36.9403 25.4351 36.6553 25.5611 36.3438 25.6406V25.7401C36.6818 25.7566 37.0116 25.866 37.3331 26.0682C37.6579 26.267 37.9264 26.5504 38.1385 26.9183C38.3506 27.2862 38.4567 27.7337 38.4567 28.2607C38.4567 28.781 38.334 29.2483 38.0888 29.6626C37.8468 30.0736 37.4723 30.4001 36.9652 30.642C36.4581 30.8807 35.8101 31 35.0213 31H31.1186ZM32.6548 29.6825H34.8722C35.608 29.6825 36.1349 29.54 36.4531 29.255C36.7713 28.9699 36.9304 28.6136 36.9304 28.1861C36.9304 27.8646 36.8492 27.5696 36.6868 27.3011C36.5244 27.0327 36.2924 26.8189 35.9908 26.6598C35.6925 26.5007 35.3378 26.4212 34.9268 26.4212H32.6548V29.6825ZM32.6548 25.223H34.7131C35.0578 25.223 35.3677 25.1567 35.6428 25.0241C35.9212 24.8916 36.1416 24.706 36.304 24.4673C36.4697 24.2254 36.5526 23.9403 36.5526 23.6122C36.5526 23.1913 36.4051 22.8383 36.1101 22.5533C35.8151 22.2682 35.3627 22.1257 34.7528 22.1257H32.6548V25.223ZM43.3761 31.1541C42.6602 31.1541 42.0354 30.9901 41.5018 30.6619C40.9682 30.3338 40.5539 29.8748 40.2589 29.2848C39.9639 28.6948 39.8164 28.0054 39.8164 27.2166C39.8164 26.4245 39.9639 25.7318 40.2589 25.1385C40.5539 24.5452 40.9682 24.0845 41.5018 23.7564C42.0354 23.4283 42.6602 23.2642 43.3761 23.2642C44.092 23.2642 44.7167 23.4283 45.2504 23.7564C45.784 24.0845 46.1983 24.5452 46.4933 25.1385C46.7882 25.7318 46.9357 26.4245 46.9357 27.2166C46.9357 28.0054 46.7882 28.6948 46.4933 29.2848C46.1983 29.8748 45.784 30.3338 45.2504 30.6619C44.7167 30.9901 44.092 31.1541 43.3761 31.1541ZM43.381 29.9062C43.8451 29.9062 44.2295 29.7836 44.5344 29.5384C44.8394 29.2931 45.0647 28.9666 45.2106 28.5589C45.3597 28.1513 45.4343 27.7022 45.4343 27.2116C45.4343 26.7244 45.3597 26.277 45.2106 25.8693C45.0647 25.4583 44.8394 25.1286 44.5344 24.88C44.2295 24.6314 43.8451 24.5071 43.381 24.5071C42.9137 24.5071 42.5259 24.6314 42.2177 24.88C41.9128 25.1286 41.6857 25.4583 41.5366 25.8693C41.3907 26.277 41.3178 26.7244 41.3178 27.2116C41.3178 27.7022 41.3907 28.1513 41.5366 28.5589C41.6857 28.9666 41.9128 29.2931 42.2177 29.5384C42.5259 29.7836 42.9137 29.9062 43.381 29.9062ZM48.595 31V23.3636H50.0318V24.5767H50.1113C50.2505 24.1657 50.4958 23.8426 50.8471 23.6072C51.2018 23.3686 51.6028 23.2493 52.0502 23.2493C52.1431 23.2493 52.2524 23.2526 52.3784 23.2592C52.5076 23.2659 52.6087 23.2741 52.6816 23.2841V24.706C52.622 24.6894 52.5159 24.6712 52.3635 24.6513C52.211 24.6281 52.0585 24.6165 51.9061 24.6165C51.5547 24.6165 51.2415 24.6911 50.9664 24.8402C50.6947 24.986 50.4792 25.1899 50.3201 25.4517C50.161 25.7102 50.0815 26.0052 50.0815 26.3366V31H48.595ZM56.5533 31.1491C55.9368 31.1491 55.3866 30.9917 54.9027 30.6768C54.4221 30.3587 54.0443 29.9062 53.7692 29.3196C53.4974 28.7296 53.3615 28.022 53.3615 27.1967C53.3615 26.3714 53.4991 25.6655 53.7741 25.0788C54.0526 24.4922 54.4337 24.0431 54.9176 23.7315C55.4015 23.42 55.95 23.2642 56.5632 23.2642C57.0372 23.2642 57.4183 23.3438 57.7067 23.5028C57.9983 23.6586 58.2237 23.8409 58.3828 24.0497C58.5452 24.2585 58.6712 24.4425 58.7607 24.6016H58.8501V20.8182H60.3366V31H58.8849V29.8118H58.7607C58.6712 29.9742 58.5419 30.1598 58.3729 30.3686C58.2071 30.5774 57.9785 30.7597 57.6868 30.9155C57.3951 31.0713 57.0173 31.1491 56.5533 31.1491ZM56.8814 29.8814C57.3089 29.8814 57.6702 29.7687 57.9652 29.5433C58.2635 29.3146 58.4889 28.9981 58.6413 28.5938C58.7971 28.1894 58.875 27.7187 58.875 27.1818C58.875 26.6515 58.7988 26.1875 58.6463 25.7898C58.4938 25.392 58.2701 25.0821 57.9751 24.8601C57.6802 24.638 57.3156 24.527 56.8814 24.527C56.4339 24.527 56.0611 24.643 55.7628 24.875C55.4645 25.107 55.2391 25.4235 55.0866 25.8246C54.9375 26.2256 54.8629 26.678 54.8629 27.1818C54.8629 27.6922 54.9392 28.1513 55.0916 28.5589C55.2441 28.9666 55.4695 29.2898 55.7678 29.5284C56.0694 29.7637 56.4406 29.8814 56.8814 29.8814ZM65.7495 31.1541C64.9971 31.1541 64.3491 30.9934 63.8056 30.6719C63.2653 30.3471 62.8477 29.8913 62.5527 29.3047C62.2611 28.7147 62.1152 28.0237 62.1152 27.2315C62.1152 26.4493 62.2611 25.7599 62.5527 25.1634C62.8477 24.5668 63.2587 24.1011 63.7857 23.7663C64.316 23.4316 64.9358 23.2642 65.6451 23.2642C66.0759 23.2642 66.4935 23.3355 66.8979 23.478C67.3023 23.6205 67.6652 23.8442 67.9867 24.1491C68.3082 24.4541 68.5617 24.8501 68.7473 25.3374C68.9329 25.8213 69.0257 26.4096 69.0257 27.1023V27.6293H62.9554V26.5156H67.5691C67.5691 26.1245 67.4895 25.7782 67.3304 25.4766C67.1713 25.1716 66.9476 24.9313 66.6593 24.7557C66.3742 24.58 66.0395 24.4922 65.655 24.4922C65.2374 24.4922 64.8728 24.5949 64.5613 24.8004C64.253 25.0026 64.0144 25.2678 63.8453 25.5959C63.6796 25.9207 63.5968 26.2737 63.5968 26.6548V27.5249C63.5968 28.0353 63.6863 28.4695 63.8652 28.8274C64.0475 29.1854 64.3011 29.4588 64.6259 29.6477C64.9507 29.8333 65.3302 29.9261 65.7644 29.9261C66.0461 29.9261 66.303 29.8864 66.535 29.8068C66.767 29.724 66.9675 29.6013 67.1365 29.4389C67.3056 29.2765 67.4348 29.076 67.5243 28.8374L68.9313 29.0909C68.8186 29.5052 68.6164 29.8681 68.3248 30.1797C68.0364 30.4879 67.6735 30.7282 67.236 30.9006C66.8018 31.0696 66.3063 31.1541 65.7495 31.1541ZM72.8974 31.169C72.4135 31.169 71.976 31.0795 71.5849 30.9006C71.1938 30.7183 70.8839 30.4548 70.6552 30.1101C70.4298 29.7654 70.3171 29.3428 70.3171 28.8423C70.3171 28.4115 70.4 28.0568 70.5657 27.7784C70.7314 27.5 70.9551 27.2796 71.2369 27.1172C71.5186 26.9548 71.8335 26.8321 72.1815 26.7493C72.5295 26.6664 72.8841 26.6035 73.2454 26.5604C73.7028 26.5073 74.074 26.4643 74.359 26.4311C74.6441 26.3946 74.8512 26.3366 74.9805 26.2571C75.1097 26.1776 75.1744 26.0483 75.1744 25.8693V25.8345C75.1744 25.4003 75.0517 25.0639 74.8065 24.8253C74.5645 24.5866 74.2032 24.4673 73.7227 24.4673C73.2222 24.4673 72.8278 24.5784 72.5394 24.8004C72.2544 25.0192 72.0572 25.2628 71.9478 25.5312L70.5508 25.2131C70.7165 24.7491 70.9585 24.3745 71.2766 24.0895C71.5981 23.8011 71.9677 23.5923 72.3853 23.4631C72.8029 23.3305 73.2421 23.2642 73.7028 23.2642C74.0077 23.2642 74.3308 23.3007 74.6722 23.3736C75.0169 23.4432 75.3384 23.5724 75.6367 23.7614C75.9383 23.9503 76.1853 24.2204 76.3775 24.5717C76.5697 24.9197 76.6658 25.3722 76.6658 25.929V31H75.2141V29.956H75.1545C75.0584 30.1482 74.9142 30.3371 74.7219 30.5227C74.5297 30.7083 74.2828 30.8625 73.9812 30.9851C73.6796 31.1077 73.3183 31.169 72.8974 31.169ZM73.2205 29.9759C73.6315 29.9759 73.9828 29.8946 74.2745 29.7322C74.5695 29.5698 74.7932 29.3577 74.9457 29.0959C75.1014 28.8307 75.1793 28.5473 75.1793 28.2457V27.2614C75.1263 27.3144 75.0236 27.3641 74.8711 27.4105C74.7219 27.4536 74.5513 27.4917 74.359 27.5249C74.1668 27.5547 73.9795 27.5829 73.7972 27.6094C73.6149 27.6326 73.4625 27.6525 73.3398 27.669C73.0515 27.7055 72.788 27.7668 72.5494 27.853C72.314 27.9392 72.1251 28.0634 71.9826 28.2259C71.8434 28.3849 71.7738 28.5971 71.7738 28.8622C71.7738 29.2301 71.9097 29.5085 72.1815 29.6974C72.4532 29.883 72.7996 29.9759 73.2205 29.9759ZM83.4831 27.8331V23.3636H84.9746V31H83.513V29.6776H83.4334C83.2578 30.0852 82.976 30.425 82.5882 30.6967C82.2038 30.9652 81.7248 31.0994 81.1515 31.0994C80.6609 31.0994 80.2267 30.9917 79.8489 30.7763C79.4744 30.5575 79.1794 30.2344 78.964 29.8068C78.7518 29.3793 78.6458 28.8506 78.6458 28.2209V23.3636H80.1323V28.0419C80.1323 28.5623 80.2765 28.9766 80.5648 29.2848C80.8532 29.593 81.2277 29.7472 81.6884 29.7472C81.9668 29.7472 82.2435 29.6776 82.5186 29.5384C82.7971 29.3991 83.0274 29.1887 83.2097 28.907C83.3953 28.6252 83.4864 28.2673 83.4831 27.8331ZM88.1452 23.3636L89.8306 26.3366L91.5309 23.3636H93.1566L90.7752 27.1818L93.1765 31H91.5508L89.8306 28.1463L88.1154 31H86.4847L88.8612 27.1818L86.5146 23.3636H88.1452Z" fill="black"/>
<line x1="110.5" y1="14" x2="110.5" y2="38" stroke="#E5E7EB"/>
<path d="M127.651 31H126.358L130.097 20.8182H131.369L135.108 31H133.815L130.773 22.429H130.693L127.651 31ZM128.128 27.0227H133.338V28.1165H128.128V27.0227ZM139.418 31.1591C138.782 31.1591 138.22 30.9983 137.733 30.6768C137.246 30.352 136.865 29.8946 136.589 29.3047C136.314 28.7114 136.177 28.0104 136.177 27.2017C136.177 26.3996 136.314 25.7036 136.589 25.1136C136.865 24.5237 137.247 24.0679 137.738 23.7464C138.228 23.425 138.795 23.2642 139.438 23.2642C139.935 23.2642 140.328 23.3471 140.616 23.5128C140.908 23.6752 141.13 23.8608 141.283 24.0696C141.438 24.2751 141.559 24.4441 141.646 24.5767H141.745V20.8182H142.918V31H141.785V29.8267H141.646C141.559 29.9659 141.437 30.1416 141.278 30.3537C141.119 30.5625 140.892 30.7498 140.597 30.9155C140.302 31.0779 139.909 31.1591 139.418 31.1591ZM139.577 30.1051C140.048 30.1051 140.446 29.9825 140.771 29.7372C141.095 29.4886 141.342 29.1456 141.511 28.7081C141.68 28.2673 141.765 27.7585 141.765 27.1818C141.765 26.6117 141.682 26.1129 141.516 25.6854C141.351 25.2545 141.105 24.9197 140.781 24.6811C140.456 24.4392 140.055 24.3182 139.577 24.3182C139.08 24.3182 138.666 24.4458 138.335 24.701C138.006 24.9529 137.759 25.2959 137.594 25.7301C137.431 26.161 137.35 26.6449 137.35 27.1818C137.35 27.7254 137.433 28.2192 137.599 28.6634C137.768 29.1042 138.016 29.4555 138.344 29.7173C138.676 29.9759 139.087 30.1051 139.577 30.1051ZM148.114 31.1591C147.477 31.1591 146.915 30.9983 146.428 30.6768C145.941 30.352 145.56 29.8946 145.285 29.3047C145.01 28.7114 144.872 28.0104 144.872 27.2017C144.872 26.3996 145.01 25.7036 145.285 25.1136C145.56 24.5237 145.943 24.0679 146.433 23.7464C146.924 23.425 147.491 23.2642 148.134 23.2642C148.631 23.2642 149.023 23.3471 149.312 23.5128C149.603 23.6752 149.826 23.8608 149.978 24.0696C150.134 24.2751 150.255 24.4441 150.341 24.5767H150.44V20.8182H151.614V31H150.48V29.8267H150.341C150.255 29.9659 150.132 30.1416 149.973 30.3537C149.814 30.5625 149.587 30.7498 149.292 30.9155C148.997 31.0779 148.604 31.1591 148.114 31.1591ZM148.273 30.1051C148.743 30.1051 149.141 29.9825 149.466 29.7372C149.791 29.4886 150.038 29.1456 150.207 28.7081C150.376 28.2673 150.46 27.7585 150.46 27.1818C150.46 26.6117 150.377 26.1129 150.212 25.6854C150.046 25.2545 149.801 24.9197 149.476 24.6811C149.151 24.4392 148.75 24.3182 148.273 24.3182C147.776 24.3182 147.361 24.4458 147.03 24.701C146.702 24.9529 146.455 25.2959 146.289 25.7301C146.127 26.161 146.045 26.6449 146.045 27.1818C146.045 27.7254 146.128 28.2192 146.294 28.6634C146.463 29.1042 146.712 29.4555 147.04 29.7173C147.371 29.9759 147.782 30.1051 148.273 30.1051ZM160.746 31.1591C160.11 31.1591 159.548 30.9983 159.061 30.6768C158.574 30.352 158.193 29.8946 157.918 29.3047C157.643 28.7114 157.505 28.0104 157.505 27.2017C157.505 26.3996 157.643 25.7036 157.918 25.1136C158.193 24.5237 158.576 24.0679 159.066 23.7464C159.557 23.425 160.123 23.2642 160.766 23.2642C161.263 23.2642 161.656 23.3471 161.945 23.5128C162.236 23.6752 162.458 23.8608 162.611 24.0696C162.767 24.2751 162.888 24.4441 162.974 24.5767H163.073V20.8182H164.246V31H163.113V29.8267H162.974C162.888 29.9659 162.765 30.1416 162.606 30.3537C162.447 30.5625 162.22 30.7498 161.925 30.9155C161.63 31.0779 161.237 31.1591 160.746 31.1591ZM160.906 30.1051C161.376 30.1051 161.774 29.9825 162.099 29.7372C162.424 29.4886 162.67 29.1456 162.839 28.7081C163.009 28.2673 163.093 27.7585 163.093 27.1818C163.093 26.6117 163.01 26.1129 162.844 25.6854C162.679 25.2545 162.433 24.9197 162.109 24.6811C161.784 24.4392 161.383 24.3182 160.906 24.3182C160.408 24.3182 159.994 24.4458 159.663 24.701C159.335 24.9529 159.088 25.2959 158.922 25.7301C158.759 26.161 158.678 26.6449 158.678 27.1818C158.678 27.7254 158.761 28.2192 158.927 28.6634C159.096 29.1042 159.344 29.4555 159.673 29.7173C160.004 29.9759 160.415 30.1051 160.906 30.1051ZM168.805 31.179C168.321 31.179 167.882 31.0878 167.488 30.9055C167.094 30.7199 166.78 30.4531 166.548 30.1051C166.316 29.7538 166.2 29.3295 166.2 28.8324C166.2 28.3949 166.286 28.0402 166.459 27.7685C166.631 27.4934 166.862 27.2779 167.15 27.1222C167.438 26.9664 167.756 26.8504 168.104 26.7741C168.456 26.6946 168.809 26.6316 169.163 26.5852C169.627 26.5256 170.004 26.4808 170.292 26.451C170.584 26.4179 170.796 26.3632 170.928 26.2869C171.064 26.2107 171.132 26.0781 171.132 25.8892V25.8494C171.132 25.3589 170.998 24.9777 170.729 24.706C170.464 24.4342 170.062 24.2983 169.521 24.2983C168.961 24.2983 168.522 24.4209 168.204 24.6662C167.886 24.9115 167.662 25.1733 167.533 25.4517L166.419 25.054C166.618 24.59 166.883 24.2287 167.214 23.9702C167.549 23.7083 167.914 23.526 168.308 23.4233C168.706 23.3172 169.097 23.2642 169.482 23.2642C169.727 23.2642 170.009 23.294 170.327 23.3537C170.648 23.41 170.958 23.5277 171.256 23.7067C171.558 23.8857 171.808 24.1558 172.007 24.517C172.206 24.8783 172.305 25.3622 172.305 25.9688V31H171.132V29.9659H171.072C170.993 30.1316 170.86 30.3089 170.675 30.4979C170.489 30.6868 170.242 30.8475 169.934 30.9801C169.626 31.1127 169.25 31.179 168.805 31.179ZM168.984 30.125C169.448 30.125 169.839 30.0339 170.158 29.8516C170.479 29.6693 170.721 29.4339 170.884 29.1456C171.049 28.8572 171.132 28.554 171.132 28.2358V27.1619C171.082 27.2216 170.973 27.2763 170.804 27.326C170.638 27.3724 170.446 27.4138 170.227 27.4503C170.012 27.4834 169.801 27.5133 169.596 27.5398C169.394 27.563 169.23 27.5829 169.104 27.5994C168.799 27.6392 168.514 27.7038 168.249 27.7933C167.987 27.8795 167.775 28.0104 167.612 28.1861C167.453 28.3584 167.374 28.5937 167.374 28.892C167.374 29.2997 167.524 29.608 167.826 29.8168C168.131 30.0223 168.517 30.125 168.984 30.125ZM177.768 23.3636V24.358H173.811V23.3636H177.768ZM174.964 21.5341H176.137V28.8125C176.137 29.1439 176.185 29.3925 176.281 29.5582C176.381 29.7206 176.507 29.83 176.659 29.8864C176.815 29.9394 176.979 29.9659 177.151 29.9659C177.281 29.9659 177.387 29.9593 177.47 29.946C177.552 29.9295 177.619 29.9162 177.669 29.9062L177.907 30.9602C177.828 30.9901 177.717 31.0199 177.574 31.0497C177.432 31.0829 177.251 31.0994 177.032 31.0994C176.701 31.0994 176.376 31.0282 176.058 30.8857C175.743 30.7431 175.481 30.526 175.272 30.2344C175.067 29.9427 174.964 29.5748 174.964 29.1307V21.5341ZM182.653 31.1591C181.917 31.1591 181.282 30.9967 180.748 30.6719C180.218 30.3438 179.809 29.8864 179.52 29.2997C179.235 28.7098 179.093 28.0237 179.093 27.2415C179.093 26.4593 179.235 25.7699 179.52 25.1733C179.809 24.5734 180.21 24.1061 180.724 23.7713C181.241 23.4332 181.844 23.2642 182.533 23.2642C182.931 23.2642 183.324 23.3305 183.711 23.4631C184.099 23.5956 184.452 23.8111 184.77 24.1094C185.089 24.4044 185.342 24.7955 185.531 25.2827C185.72 25.7699 185.814 26.3698 185.814 27.0824V27.5795H179.928V26.5653H184.621C184.621 26.1345 184.535 25.75 184.363 25.4119C184.194 25.0739 183.952 24.8071 183.637 24.6115C183.325 24.416 182.957 24.3182 182.533 24.3182C182.066 24.3182 181.662 24.4342 181.32 24.6662C180.982 24.8949 180.722 25.1932 180.54 25.5611C180.357 25.929 180.266 26.3234 180.266 26.7443V27.4205C180.266 27.9972 180.366 28.486 180.564 28.8871C180.767 29.2848 181.047 29.5881 181.405 29.7969C181.763 30.0024 182.179 30.1051 182.653 30.1051C182.961 30.1051 183.239 30.062 183.488 29.9759C183.74 29.8864 183.957 29.7538 184.139 29.5781C184.321 29.3991 184.462 29.1771 184.562 28.9119L185.695 29.2301C185.576 29.6146 185.375 29.9527 185.094 30.2443C184.812 30.5327 184.464 30.758 184.05 30.9205C183.635 31.0795 183.17 31.1591 182.653 31.1591ZM193.008 25.0739L191.954 25.3722C191.888 25.1965 191.79 25.0258 191.661 24.8601C191.535 24.6911 191.363 24.5518 191.144 24.4425C190.925 24.3331 190.645 24.2784 190.304 24.2784C189.836 24.2784 189.447 24.3861 189.135 24.6016C188.827 24.8137 188.673 25.0838 188.673 25.4119C188.673 25.7036 188.779 25.9339 188.991 26.103C189.203 26.272 189.535 26.4129 189.986 26.5256L191.119 26.804C191.802 26.9697 192.311 27.2232 192.645 27.5646C192.98 27.9027 193.148 28.3385 193.148 28.8722C193.148 29.3097 193.022 29.7008 192.77 30.0455C192.521 30.3902 192.173 30.6619 191.726 30.8608C191.278 31.0597 190.758 31.1591 190.165 31.1591C189.386 31.1591 188.741 30.9901 188.231 30.652C187.72 30.3139 187.397 29.8201 187.261 29.1705L188.375 28.892C188.481 29.303 188.681 29.6113 188.976 29.8168C189.275 30.0223 189.664 30.125 190.145 30.125C190.692 30.125 191.126 30.009 191.447 29.777C191.772 29.5417 191.934 29.2599 191.934 28.9318C191.934 28.6667 191.842 28.4446 191.656 28.2656C191.47 28.0833 191.185 27.9474 190.801 27.858L189.528 27.5597C188.829 27.3939 188.315 27.1371 187.987 26.7891C187.662 26.4377 187.5 25.9986 187.5 25.4716C187.5 25.0407 187.621 24.6596 187.863 24.3281C188.108 23.9967 188.441 23.7365 188.862 23.5476C189.286 23.3587 189.767 23.2642 190.304 23.2642C191.059 23.2642 191.653 23.4299 192.084 23.7614C192.518 24.0928 192.826 24.5303 193.008 25.0739Z" fill="#6B7280"/>
<line x1="210.5" y1="14" x2="210.5" y2="38" stroke="#E5E7EB"/>
<path d="M227.651 31H226.358L230.097 20.8182H231.369L235.108 31H233.815L230.773 22.429H230.693L227.651 31ZM228.128 27.0227H233.338V28.1165H228.128V27.0227ZM239.418 31.1591C238.782 31.1591 238.22 30.9983 237.733 30.6768C237.246 30.352 236.865 29.8946 236.589 29.3047C236.314 28.7114 236.177 28.0104 236.177 27.2017C236.177 26.3996 236.314 25.7036 236.589 25.1136C236.865 24.5237 237.247 24.0679 237.738 23.7464C238.228 23.425 238.795 23.2642 239.438 23.2642C239.935 23.2642 240.328 23.3471 240.616 23.5128C240.908 23.6752 241.13 23.8608 241.283 24.0696C241.438 24.2751 241.559 24.4441 241.646 24.5767H241.745V20.8182H242.918V31H241.785V29.8267H241.646C241.559 29.9659 241.437 30.1416 241.278 30.3537C241.119 30.5625 240.892 30.7498 240.597 30.9155C240.302 31.0779 239.909 31.1591 239.418 31.1591ZM239.577 30.1051C240.048 30.1051 240.446 29.9825 240.771 29.7372C241.095 29.4886 241.342 29.1456 241.511 28.7081C241.68 28.2673 241.765 27.7585 241.765 27.1818C241.765 26.6117 241.682 26.1129 241.516 25.6854C241.351 25.2545 241.105 24.9197 240.781 24.6811C240.456 24.4392 240.055 24.3182 239.577 24.3182C239.08 24.3182 238.666 24.4458 238.335 24.701C238.006 24.9529 237.759 25.2959 237.594 25.7301C237.431 26.161 237.35 26.6449 237.35 27.1818C237.35 27.7254 237.433 28.2192 237.599 28.6634C237.768 29.1042 238.016 29.4555 238.344 29.7173C238.676 29.9759 239.087 30.1051 239.577 30.1051ZM248.114 31.1591C247.477 31.1591 246.915 30.9983 246.428 30.6768C245.941 30.352 245.56 29.8946 245.285 29.3047C245.01 28.7114 244.872 28.0104 244.872 27.2017C244.872 26.3996 245.01 25.7036 245.285 25.1136C245.56 24.5237 245.943 24.0679 246.433 23.7464C246.924 23.425 247.491 23.2642 248.134 23.2642C248.631 23.2642 249.023 23.3471 249.312 23.5128C249.603 23.6752 249.826 23.8608 249.978 24.0696C250.134 24.2751 250.255 24.4441 250.341 24.5767H250.44V20.8182H251.614V31H250.48V29.8267H250.341C250.255 29.9659 250.132 30.1416 249.973 30.3537C249.814 30.5625 249.587 30.7498 249.292 30.9155C248.997 31.0779 248.604 31.1591 248.114 31.1591ZM248.273 30.1051C248.743 30.1051 249.141 29.9825 249.466 29.7372C249.791 29.4886 250.038 29.1456 250.207 28.7081C250.376 28.2673 250.46 27.7585 250.46 27.1818C250.46 26.6117 250.377 26.1129 250.212 25.6854C250.046 25.2545 249.801 24.9197 249.476 24.6811C249.151 24.4392 248.75 24.3182 248.273 24.3182C247.776 24.3182 247.361 24.4458 247.03 24.701C246.702 24.9529 246.455 25.2959 246.289 25.7301C246.127 26.161 246.045 26.6449 246.045 27.1818C246.045 27.7254 246.128 28.2192 246.294 28.6634C246.463 29.1042 246.712 29.4555 247.04 29.7173C247.371 29.9759 247.782 30.1051 248.273 30.1051ZM260.945 34.0227C260.379 34.0227 259.891 33.9498 259.484 33.804C259.076 33.6615 258.736 33.4725 258.464 33.2372C258.196 33.0052 257.982 32.7566 257.823 32.4915L258.758 31.8352C258.864 31.9744 258.998 32.1335 259.161 32.3125C259.323 32.4948 259.545 32.6522 259.827 32.7848C260.112 32.9207 260.485 32.9886 260.945 32.9886C261.562 32.9886 262.071 32.8395 262.472 32.5412C262.873 32.2429 263.073 31.7756 263.073 31.1392V29.5881H262.974C262.888 29.7273 262.765 29.8996 262.606 30.1051C262.45 30.3073 262.225 30.4879 261.93 30.647C261.638 30.8028 261.244 30.8807 260.746 30.8807C260.13 30.8807 259.576 30.7348 259.086 30.4432C258.599 30.1515 258.213 29.7273 257.928 29.1705C257.646 28.6136 257.505 27.9375 257.505 27.142C257.505 26.3598 257.643 25.6787 257.918 25.0987C258.193 24.5154 258.576 24.0646 259.066 23.7464C259.557 23.425 260.123 23.2642 260.766 23.2642C261.263 23.2642 261.658 23.3471 261.95 23.5128C262.245 23.6752 262.47 23.8608 262.626 24.0696C262.785 24.2751 262.907 24.4441 262.994 24.5767H263.113V23.3636H264.246V31.2188C264.246 31.875 264.097 32.4086 263.799 32.8196C263.504 33.2339 263.106 33.5372 262.606 33.7294C262.109 33.925 261.555 34.0227 260.945 34.0227ZM260.906 29.8267C261.376 29.8267 261.774 29.719 262.099 29.5036C262.424 29.2881 262.67 28.9782 262.839 28.5739C263.009 28.1695 263.093 27.6856 263.093 27.1222C263.093 26.572 263.01 26.0864 262.844 25.6655C262.679 25.2446 262.433 24.9148 262.109 24.6761C261.784 24.4375 261.383 24.3182 260.906 24.3182C260.408 24.3182 259.994 24.4441 259.663 24.696C259.335 24.9479 259.088 25.286 258.922 25.7102C258.759 26.1345 258.678 26.6051 258.678 27.1222C258.678 27.6525 258.761 28.1214 258.927 28.5291C259.096 28.9335 259.344 29.2517 259.673 29.4837C260.004 29.7124 260.415 29.8267 260.906 29.8267ZM271.207 27.8778V23.3636H272.38V31H271.207V29.7074H271.127C270.948 30.0952 270.67 30.425 270.292 30.6967C269.914 30.9652 269.437 31.0994 268.86 31.0994C268.383 31.0994 267.959 30.995 267.587 30.7862C267.216 30.5741 266.924 30.2559 266.712 29.8317C266.5 29.4041 266.394 28.8655 266.394 28.2159V23.3636H267.567V28.1364C267.567 28.6932 267.723 29.1373 268.035 29.4688C268.35 29.8002 268.751 29.9659 269.238 29.9659C269.53 29.9659 269.826 29.8913 270.128 29.7422C270.433 29.593 270.688 29.3643 270.893 29.0561C271.102 28.7479 271.207 28.3551 271.207 27.8778ZM277.731 31.1591C276.995 31.1591 276.36 30.9967 275.827 30.6719C275.296 30.3438 274.887 29.8864 274.599 29.2997C274.314 28.7098 274.171 28.0237 274.171 27.2415C274.171 26.4593 274.314 25.7699 274.599 25.1733C274.887 24.5734 275.288 24.1061 275.802 23.7713C276.319 23.4332 276.922 23.2642 277.611 23.2642C278.009 23.2642 278.402 23.3305 278.79 23.4631C279.177 23.5956 279.53 23.8111 279.849 24.1094C280.167 24.4044 280.42 24.7955 280.609 25.2827C280.798 25.7699 280.893 26.3698 280.893 27.0824V27.5795H275.006V26.5653H279.699C279.699 26.1345 279.613 25.75 279.441 25.4119C279.272 25.0739 279.03 24.8071 278.715 24.6115C278.403 24.416 278.036 24.3182 277.611 24.3182C277.144 24.3182 276.74 24.4342 276.398 24.6662C276.06 24.8949 275.8 25.1932 275.618 25.5611C275.435 25.929 275.344 26.3234 275.344 26.7443V27.4205C275.344 27.9972 275.444 28.486 275.643 28.8871C275.845 29.2848 276.125 29.5881 276.483 29.7969C276.841 30.0024 277.257 30.1051 277.731 30.1051C278.039 30.1051 278.317 30.062 278.566 29.9759C278.818 29.8864 279.035 29.7538 279.217 29.5781C279.399 29.3991 279.54 29.1771 279.64 28.9119L280.773 29.2301C280.654 29.6146 280.453 29.9527 280.172 30.2443C279.89 30.5327 279.542 30.758 279.128 30.9205C278.713 31.0795 278.248 31.1591 277.731 31.1591ZM288.086 25.0739L287.032 25.3722C286.966 25.1965 286.868 25.0258 286.739 24.8601C286.613 24.6911 286.441 24.5518 286.222 24.4425C286.003 24.3331 285.723 24.2784 285.382 24.2784C284.915 24.2784 284.525 24.3861 284.214 24.6016C283.905 24.8137 283.751 25.0838 283.751 25.4119C283.751 25.7036 283.857 25.9339 284.069 26.103C284.282 26.272 284.613 26.4129 285.064 26.5256L286.197 26.804C286.88 26.9697 287.389 27.2232 287.724 27.5646C288.058 27.9027 288.226 28.3385 288.226 28.8722C288.226 29.3097 288.1 29.7008 287.848 30.0455C287.599 30.3902 287.251 30.6619 286.804 30.8608C286.356 31.0597 285.836 31.1591 285.243 31.1591C284.464 31.1591 283.819 30.9901 283.309 30.652C282.798 30.3139 282.475 29.8201 282.339 29.1705L283.453 28.892C283.559 29.303 283.76 29.6113 284.055 29.8168C284.353 30.0223 284.742 30.125 285.223 30.125C285.77 30.125 286.204 30.009 286.525 29.777C286.85 29.5417 287.013 29.2599 287.013 28.9318C287.013 28.6667 286.92 28.4446 286.734 28.2656C286.549 28.0833 286.264 27.9474 285.879 27.858L284.606 27.5597C283.907 27.3939 283.393 27.1371 283.065 26.7891C282.74 26.4377 282.578 25.9986 282.578 25.4716C282.578 25.0407 282.699 24.6596 282.941 24.3281C283.186 23.9967 283.519 23.7365 283.94 23.5476C284.364 23.3587 284.845 23.2642 285.382 23.2642C286.138 23.2642 286.731 23.4299 287.162 23.7614C287.596 24.0928 287.904 24.5303 288.086 25.0739ZM293.313 23.3636V24.358H289.355V23.3636H293.313ZM290.509 21.5341H291.682V28.8125C291.682 29.1439 291.73 29.3925 291.826 29.5582C291.926 29.7206 292.052 29.83 292.204 29.8864C292.36 29.9394 292.524 29.9659 292.696 29.9659C292.826 29.9659 292.932 29.9593 293.015 29.946C293.097 29.9295 293.164 29.9162 293.213 29.9062L293.452 30.9602C293.373 30.9901 293.261 31.0199 293.119 31.0497C292.976 31.0829 292.796 31.0994 292.577 31.0994C292.246 31.0994 291.921 31.0282 291.603 30.8857C291.288 30.7431 291.026 30.526 290.817 30.2344C290.612 29.9427 290.509 29.5748 290.509 29.1307V21.5341ZM300.35 25.0739L299.296 25.3722C299.23 25.1965 299.132 25.0258 299.003 24.8601C298.877 24.6911 298.705 24.5518 298.486 24.4425C298.267 24.3331 297.987 24.2784 297.646 24.2784C297.178 24.2784 296.789 24.3861 296.477 24.6016C296.169 24.8137 296.015 25.0838 296.015 25.4119C296.015 25.7036 296.121 25.9339 296.333 26.103C296.545 26.272 296.877 26.4129 297.327 26.5256L298.461 26.804C299.144 26.9697 299.652 27.2232 299.987 27.5646C300.322 27.9027 300.489 28.3385 300.489 28.8722C300.489 29.3097 300.363 29.7008 300.112 30.0455C299.863 30.3902 299.515 30.6619 299.067 30.8608C298.62 31.0597 298.1 31.1591 297.506 31.1591C296.728 31.1591 296.083 30.9901 295.572 30.652C295.062 30.3139 294.739 29.8201 294.603 29.1705L295.717 28.892C295.823 29.303 296.023 29.6113 296.318 29.8168C296.616 30.0223 297.006 30.125 297.487 30.125C298.033 30.125 298.468 30.009 298.789 29.777C299.114 29.5417 299.276 29.2599 299.276 28.9318C299.276 28.6667 299.183 28.4446 298.998 28.2656C298.812 28.0833 298.527 27.9474 298.143 27.858L296.87 27.5597C296.171 27.3939 295.657 27.1371 295.329 26.7891C295.004 26.4377 294.842 25.9986 294.842 25.4716C294.842 25.0407 294.963 24.6596 295.205 24.3281C295.45 23.9967 295.783 23.7365 296.204 23.5476C296.628 23.3587 297.109 23.2642 297.646 23.2642C298.401 23.2642 298.995 23.4299 299.425 23.7614C299.86 24.0928 300.168 24.5303 300.35 25.0739Z" fill="#6B7280"/>
<g filter="url(#filter1_d_1_2607)">
<rect x="318" y="10" width="32" height="32" rx="16" fill="#DE3151"/>
<path d="M340.042 32.0417L336.917 28.9167M327.958 25.1667C327.958 22.2902 330.29 19.9584 333.167 19.9584C336.043 19.9584 338.375 22.2902 338.375 25.1667C338.375 28.0432 336.043 30.375 333.167 30.375C330.29 30.375 327.958 28.0432 327.958 25.1667Z" stroke="white" stroke-width="1.5" stroke-linecap="round" stroke-linejoin="round"/>
</g>
<rect x="6.5" y="2.5" width="351" height="47" rx="23.5" stroke="#E5E7EB"/>
</g>
<defs>
<filter id="filter0_dd_1_2607" x="0" y="0" width="364" height="60" filterUnits="userSpaceOnUse" color-interpolation-filters="sRGB">
<feFlood flood-opacity="0" result="BackgroundImageFix"/>
<feColorMatrix in="SourceAlpha" type="matrix" values="0 0 0 0 0 0 0 0 0 0 0 0 0 0 0 0 0 0 127 0" result="hardAlpha"/>
<feOffset dy="4"/>
<feGaussianBlur stdDeviation="3"/>
<feColorMatrix type="matrix" values="0 0 0 0 0.121569 0 0 0 0 0.160784 0 0 0 0 0.215686 0 0 0 0.1 0"/>
<feBlend mode="normal" in2="BackgroundImageFix" result="effect1_dropShadow_1_2607"/>
<feColorMatrix in="SourceAlpha" type="matrix" values="0 0 0 0 0 0 0 0 0 0 0 0 0 0 0 0 0 0 127 0" result="hardAlpha"/>
<feOffset dy="2"/>
<feGaussianBlur stdDeviation="2"/>
<feColorMatrix type="matrix" values="0 0 0 0 0.121569 0 0 0 0 0.160784 0 0 0 0 0.215686 0 0 0 0.06 0"/>
<feBlend mode="normal" in2="effect1_dropShadow_1_2607" result="effect2_dropShadow_1_2607"/>
<feBlend mode="normal" in="SourceGraphic" in2="effect2_dropShadow_1_2607" result="shape"/>
</filter>
<filter id="filter1_d_1_2607" x="316" y="9" width="36" height="36" filterUnits="userSpaceOnUse" color-interpolation-filters="sRGB">
<feFlood flood-opacity="0" result="BackgroundImageFix"/>
<feColorMatrix in="SourceAlpha" type="matrix" values="0 0 0 0 0 0 0 0 0 0 0 0 0 0 0 0 0 0 127 0" result="hardAlpha"/>
<feOffset dy="1"/>
<feGaussianBlur stdDeviation="1"/>
<feColorMatrix type="matrix" values="0 0 0 0 0.121569 0 0 0 0 0.160784 0 0 0 0 0.215686 0 0 0 0.08 0"/>
<feBlend mode="normal" in2="BackgroundImageFix" result="effect1_dropShadow_1_2607"/>
<feBlend mode="normal" in="SourceGraphic" in2="effect1_dropShadow_1_2607" result="shape"/>
</filter>
</defs>
</svg>
